<svg width="65" height="40" viewBox="0 0 65 40" fill="none" xmlns="http://www.w3.org/2000/svg">
<path d="M55.0692 31.2983C53.5636 31.2983 52.2212 31.0213 51.0423 30.4673C49.8704 29.9134 48.94 29.1499 48.2511 28.1768C47.5621 27.2038 47.2035 26.0888 47.1751 24.8317H51.6495C51.6992 25.6768 52.0543 26.3622 52.7148 26.8878C53.3754 27.4134 54.1602 27.6761 55.0692 27.6761C55.7937 27.6761 56.4329 27.5163 56.9869 27.1967C57.5479 26.87 57.9847 26.419 58.2972 25.8438C58.6168 25.2614 58.7766 24.5937 58.7766 23.8409C58.7766 23.0739 58.6133 22.3991 58.2866 21.8168C57.967 21.2344 57.5231 20.7798 56.9549 20.4531C56.3867 20.1264 55.7369 19.9595 55.0053 19.9524C54.3661 19.9524 53.7447 20.0838 53.141 20.3466C52.5444 20.6094 52.0792 20.968 51.7454 21.4226L47.6438 20.6875L48.6772 9.18182H62.0153V12.9531H52.4805L51.9158 18.4183H52.0437C52.4272 17.8786 53.006 17.4311 53.7802 17.076C54.5543 16.7209 55.4208 16.5433 56.3796 16.5433C57.6935 16.5433 58.8654 16.8523 59.8952 17.4702C60.9251 18.0881 61.7383 18.9368 62.3349 20.0163C62.9315 21.0888 63.2262 22.3246 63.2191 23.7237C63.2262 25.1939 62.8853 26.5007 62.1964 27.6442C61.5146 28.7805 60.5593 29.6754 59.3306 30.3288C58.109 30.9751 56.6886 31.2983 55.0692 31.2983Z" fill="black"/>
<path d="M20 0L25.7603 12.0716L39.0211 13.8197L29.3204 23.0284L31.7557 36.1803L20 29.8L8.2443 36.1803L10.6796 23.0284L0.97887 13.8197L14.2397 12.0716L20 0Z" fill="#FF5355"/>
</svg>
